<svg id="Layer_1" data-name="Layer 1" xmlns="http://www.w3.org/2000/svg" viewBox="0 0 200 50"><defs><style>.cls-1{fill:#353535;}.cls-2{fill:#f6b600;}.cls-3{fill:#85b900;}.cls-4{fill:#2aa4f2;}.cls-5{fill:#fff;}.cls-6{fill:none;stroke:#353535;stroke-miterlimit:10;stroke-width:0.1px;}.cls-7{fill:#e35101;}.cls-8{fill:#6e6e6e;}</style></defs><title>happyEagleLogo</title><path class="cls-1" d="M21.69,37.54l1.61.54c.11.14.22.28.32.43a1.56,1.56,0,0,0,1.78.77,1.27,1.27,0,0,1,1.28.32.34.34,0,0,1-.19.59c-.26.06-.53.06-.79.1s-.46.12-.78.2a18.14,18.14,0,0,1,1.38,1.24,1.87,1.87,0,0,1,.42.83c.08.31-.23.49-.59.34a2.56,2.56,0,0,1-.39-.22l-.41-.29c.11.27.2.47.26.67s.13.48.06.54a1.25,1.25,0,0,1-.59.09s-.1,0-.15-.06l-.06.07c0,.24.06.54-.3.61s-.52-.19-.61-.45a9.69,9.69,0,0,1-.29-1.21,17.49,17.49,0,0,0-.49-2.17,5.57,5.57,0,0,0-.84-1.14A2.63,2.63,0,0,1,21.69,37.54Z"/><path class="cls-1" d="M15.51,32.08A5,5,0,0,0,16,33a11.15,11.15,0,0,0,2.89,2.92c-.3.75-1,.61-1.66.19a9,9,0,0,1-1.45-1.32A2.86,2.86,0,0,0,14.18,34c-.08,0-.28.15-.28.24a4.51,4.51,0,0,0,0,1c0,.25.21.48.26.73a.71.71,0,0,1-.08.47s-.25,0-.36,0a1.82,1.82,0,0,1-.36-.2c-.17.37-.56.31-1.13-.19l0,.1c-.07.21-.15.42-.22.64a2.7,2.7,0,0,1-.6-.35,2,2,0,0,1-.24-1.78,3.75,3.75,0,0,1,2.87-2.95c.27-.08.64.1.95.18A5.32,5.32,0,0,1,15.51,32.08Z"/><path class="cls-2" d="M21.69,37.54c-.53-.28-1.07-.56-1.59-.86s-.84-.49-1.26-.74A11.15,11.15,0,0,1,16,33a5,5,0,0,1-.44-.94l-.27-1.58a1.32,1.32,0,0,0,.57-1c.11-.87.3-1.73.43-2.6.09-.69.15-1.38.22-2.06l1.24-.09,4.89-.32c1.1-.08,2.21-.17,3.31-.23a1.23,1.23,0,0,1,.66.11c.69.39,1.37.81,2.05,1.22a8.62,8.62,0,0,0,1.79.67,15.34,15.34,0,0,0,5.76-.43,9.87,9.87,0,0,0,1.9-.81,2.88,2.88,0,0,1,1.73-.25c.28.83-.21,1.32-.78,1.76-.41.31-.85.59-1.37,1,.44,0,.78,0,1.11,0a1.86,1.86,0,0,1,.58.1c.2.07.31.19.18.46a2.19,2.19,0,0,1-1.42,1.06c-.33.13-.68.23-1.11.38.44.06.78.08,1.12.15a1,1,0,0,1,.48.24c.22.21.31.36,0,.68a3.91,3.91,0,0,1-2.18.78l-.16,0s0,0,0,0l1.06.93a3.79,3.79,0,0,1-2.49.54l.19.61c-1.08.72-2.11-.07-3.2-.09l.37.87a1.08,1.08,0,0,1-1.3-.11,12,12,0,0,0-1.12-.73l-.56,1.27-1.32-1.35a4.68,4.68,0,0,0-.13,1.85,2.36,2.36,0,0,1-.93,2.7,3.09,3.09,0,0,1-1.37.35,18.82,18.82,0,0,1-2.11-.13Z"/><path class="cls-3" d="M15.58,14.77c.14-.74.28-1.49.44-2.23a1.16,1.16,0,0,1,.87-1,1.71,1.71,0,0,0,.72-.43,5,5,0,0,1,2.84-1.28,11.44,11.44,0,0,1,4.55.39A4.45,4.45,0,0,0,27,10c.42-.09,1.82-.25,2,.21,0,.73-1.36.66-1.09,1.29.09.2.48.26.51.51s-.5.34-.58.65c0,.15.29.33.35.46.15.32,0,.52-.21.73-.45.41-.51.53-.21,1.06a5.9,5.9,0,0,1,.57,3,5.25,5.25,0,0,1-.4,1.71,5.46,5.46,0,0,0,.13,3.55c.23.79.54,1.56.82,2.37h-.27c-.68-.41-1.36-.83-2.05-1.22a1.23,1.23,0,0,0-.66-.11c-1.1.06-2.21.15-3.31.23l-4.89.32-1.24.09c-.06-.45-.12-.89-.21-1.34,0-.06-.13-.11-.2-.17a9.37,9.37,0,0,0,.48-1.08,11.38,11.38,0,0,0,.29-1.15,5.46,5.46,0,0,0,1.56-.47,15.12,15.12,0,0,0,2-1.73c.79-.78.62-1.42,0-1.92a13.32,13.32,0,0,1-2-1.93.81.81,0,0,0-.35-.31,3.78,3.78,0,0,0-.94.06c-.22,0-.68,0-.9,0S15.58,14.77,15.58,14.77Z"/><path class="cls-4" d="M16.05,23.34c.07.06.19.11.2.17.09.45.15.89.21,1.34-.07.68-.13,1.37-.22,2.06-.13.87-.32,1.73-.43,2.6a1.32,1.32,0,0,1-.57,1l-1.31.94-.51-1.31a4.43,4.43,0,0,1-.76.64,4.7,4.7,0,0,1-1,.28c-.45-.6.1-1,.26-1.57-.83.32-1.37,1.18-2.33,1-.47-.75.4-1.19.41-1.86l-1.36.45a1.26,1.26,0,0,1-.53.11.56.56,0,0,1-.43-.83c.07-.19.17-.36.29-.62a3.34,3.34,0,0,1-.43.09c-.6,0-1.2,0-1.8,0-.26,0-.35-.67-.13-.91s.31-.3.44-.46a.26.26,0,0,0,.07-.24.3.3,0,0,0-.24-.16,3.67,3.67,0,0,0-1,.1,1.47,1.47,0,0,1-1-.19c-.2-.08-.13-.56.09-.75l.7-.61,0-.13a4.44,4.44,0,0,0-.9.13.58.58,0,0,1-.74-.24.52.52,0,0,1,.1-.76,2.46,2.46,0,0,1,.53-.4c1.13-.55,2.24-1.13,3.4-1.6a9.12,9.12,0,0,1,1.9-.36,8,8,0,0,1,2.85.17,1,1,0,0,1,.24.09,8.18,8.18,0,0,1,2.32,1.69.87.87,0,0,0,.61.26A9.33,9.33,0,0,0,16.05,23.34Z"/><path class="cls-1" d="M16,14.83a1.64,1.64,0,0,1,.28-.51.77.77,0,0,1,.56-.31,1.08,1.08,0,0,1,.72.31c.19.15.41.49.35.57s-.72.12-1,.11S16.08,15.05,16,14.83Z"/><path class="cls-1" d="M22.11,15.33a1.54,1.54,0,0,0-1.36-1.58,1,1,0,0,0-.92.62,2.22,2.22,0,0,0-.16,1.45c.21.66.57,1.08,1.08,1.08A1.62,1.62,0,0,0,22.11,15.33Z"/><ellipse class="cls-5" cx="20.4" cy="15" rx="0.27" ry="0.34" transform="translate(-4.77 12.21) rotate(-30)"/><ellipse class="cls-5" cx="16.85" cy="14.51" rx="0.11" ry="0.14" transform="translate(-5 10.37) rotate(-30)"/><path class="cls-6" d="M19.7,15.65a8.22,8.22,0,0,1-.23-1.22,4.42,4.42,0,0,1,.14-1.16c.17-.59.42-.84.76-.94s.92.22,1.19.76a4,4,0,0,1,.49,2.31"/><path class="cls-6" d="M16.05,14.87a3.22,3.22,0,0,1,0-1.2c.09-.33.31-1,.73-1a.94.94,0,0,1,.75.57,2.69,2.69,0,0,1,.27,1,2.91,2.91,0,0,1,.05.61"/><path class="cls-7" d="M18.08,14.75a.81.81,0,0,1,.35.31,13.32,13.32,0,0,0,2,1.93c.62.5.79,1.14,0,1.92a15.12,15.12,0,0,1-2,1.73,5.46,5.46,0,0,1-1.56.47c-.72,0-1.44,0-2.16-.11-.55-.06-.84-.48-.6-.83a1.71,1.71,0,0,1,.54-.42,2.19,2.19,0,0,0,1-1.07,2.94,2.94,0,0,0-3.09.36,15.82,15.82,0,0,1-1.88,1c-.43.22-.67-.08-.78-.4a4.56,4.56,0,0,1-.33-1.45A9.25,9.25,0,0,1,9.7,15.8,1.86,1.86,0,0,1,12,14.17c.91.09,1.81.31,2.72.47l.83.13c.14,0,.29.05.44.06a4.35,4.35,0,0,0,.51,0A4.3,4.3,0,0,1,18.08,14.75Z"/><path class="cls-1" d="M14.67,20.33c.55-.54,1.23-.91,1.49-1.75a4.76,4.76,0,0,0,3.42-.85c.2.88-.36,1.34-.89,1.72a4.89,4.89,0,0,1-2.06,1A4.21,4.21,0,0,1,14.67,20.33Z"/><path class="cls-8" d="M46.6,22.08h9.69V13.47h3.83V34.38H56.29v-9.1H46.6v9.1H42.78V13.47H46.6Z"/><path class="cls-8" d="M71.19,32.77h-.06a7.35,7.35,0,0,1-.75.67,8.64,8.64,0,0,1-1,.65,6,6,0,0,1-1.25.49,5.48,5.48,0,0,1-1.49.19,5.73,5.73,0,0,1-2-.34A4.46,4.46,0,0,1,62,31.93a5.18,5.18,0,0,1-.38-2A5.09,5.09,0,0,1,62,27.74a4.49,4.49,0,0,1,1.24-1.64,5.52,5.52,0,0,1,1.9-1,8.26,8.26,0,0,1,2.46-.35,11.33,11.33,0,0,1,1.81.13,12.77,12.77,0,0,1,1.45.29v-.61a3,3,0,0,0-.18-1,2.29,2.29,0,0,0-.58-.88,3,3,0,0,0-1-.61,4.79,4.79,0,0,0-1.57-.22,10.14,10.14,0,0,0-2.25.25,18.33,18.33,0,0,0-2.43.75V19.91a11.79,11.79,0,0,1,2.42-.77A14.5,14.5,0,0,1,68,18.86a9.28,9.28,0,0,1,2.89.41,6.15,6.15,0,0,1,2.08,1.11,4.51,4.51,0,0,1,1.25,1.68,5.26,5.26,0,0,1,.42,2.11v5.71q0,1.5,0,2.58t.06,1.92H71.35Zm-.3-4.85c-.35-.08-.76-.16-1.22-.22a9.1,9.1,0,0,0-1.39-.1,3.86,3.86,0,0,0-2.15.53,1.87,1.87,0,0,0-.78,1.65,2.06,2.06,0,0,0,.18.9,1.7,1.7,0,0,0,.48.63,1.94,1.94,0,0,0,.71.38,3,3,0,0,0,.86.12,3.62,3.62,0,0,0,1.06-.14,4.79,4.79,0,0,0,.92-.38,3.88,3.88,0,0,0,.76-.51,4.3,4.3,0,0,0,.57-.54Z"/><path class="cls-8" d="M84,34.77a5.29,5.29,0,0,1-2.21-.45,5.35,5.35,0,0,1-1.65-1.1H80c0,.21,0,.5,0,.88s0,.8,0,1.25v6.29H76.38V19.24h3.25l.16,1.7h.06a5.38,5.38,0,0,1,1.77-1.49,5.16,5.16,0,0,1,2.5-.59,6.67,6.67,0,0,1,2.43.46,5.87,5.87,0,0,1,2.12,1.42,7,7,0,0,1,1.47,2.4,9.69,9.69,0,0,1,.56,3.46,10,10,0,0,1-.6,3.64,7.33,7.33,0,0,1-1.56,2.55,6.27,6.27,0,0,1-2.15,1.49A6.17,6.17,0,0,1,84,34.77Zm-.48-12.94a4,4,0,0,0-1.85.48,5.2,5.2,0,0,0-1.54,1.24V30.3a4.12,4.12,0,0,0,.56.53,4.19,4.19,0,0,0,.73.48,4,4,0,0,0,.9.36,3.51,3.51,0,0,0,1,.14,3.2,3.2,0,0,0,1.53-.36,3.07,3.07,0,0,0,1.11-1,5,5,0,0,0,.68-1.6,8.29,8.29,0,0,0,.24-2.07,8.47,8.47,0,0,0-.24-2.14,4.66,4.66,0,0,0-.69-1.54,2.92,2.92,0,0,0-2.46-1.23Z"/><path class="cls-8" d="M99.19,34.77A5.29,5.29,0,0,1,97,34.32a5.35,5.35,0,0,1-1.65-1.1h-.06c0,.21,0,.5,0,.88s0,.8,0,1.25v6.29h-3.7V19.24h3.25l.16,1.7h.06a5.44,5.44,0,0,1,1.76-1.49,5.19,5.19,0,0,1,2.5-.59,6.59,6.59,0,0,1,2.43.46,5.78,5.78,0,0,1,2.12,1.42,6.84,6.84,0,0,1,1.48,2.4,9.7,9.7,0,0,1,.55,3.46,10.21,10.21,0,0,1-.59,3.64,7.65,7.65,0,0,1-1.56,2.55,6.37,6.37,0,0,1-2.15,1.49A6.24,6.24,0,0,1,99.19,34.77ZM98.7,21.83a4,4,0,0,0-1.84.48,5.24,5.24,0,0,0-1.55,1.24V30.3a4.94,4.94,0,0,0,.57.53,3.84,3.84,0,0,0,.73.48,4,4,0,0,0,.9.36,3.49,3.49,0,0,0,1,.14,3,3,0,0,0,2.65-1.4,5.18,5.18,0,0,0,.68-1.6,8.3,8.3,0,0,0,.23-2.07,8.47,8.47,0,0,0-.24-2.14,4.66,4.66,0,0,0-.68-1.54,3.06,3.06,0,0,0-1.08-.92A3,3,0,0,0,98.7,21.83Z"/><path class="cls-8" d="M105,19.24h4l2.27,5.48c.85,2.08,1.45,3.63,1.81,4.63h.06c.26-.79.81-2.23,1.66-4.35l2.34-5.76h4l-9.75,22.4h-3.66l3.47-8.11Z"/><path class="cls-8" d="M129.43,31.17h10.28v3.21H125.6V13.47h13.55v3.2h-9.72v5.41h8.34v3.2h-8.34Z"/><path class="cls-8" d="M149.84,32.77h-.06a7.35,7.35,0,0,1-.75.67,7.86,7.86,0,0,1-1,.65,5.81,5.81,0,0,1-1.25.49,5.43,5.43,0,0,1-1.49.19,5.77,5.77,0,0,1-2-.34,4.51,4.51,0,0,1-1.61-1,4.35,4.35,0,0,1-1-1.53,5,5,0,0,1-.39-2,5.09,5.09,0,0,1,.45-2.18,4.49,4.49,0,0,1,1.24-1.64,5.57,5.57,0,0,1,1.91-1,8.19,8.19,0,0,1,2.45-.35,11.24,11.24,0,0,1,1.81.13,12.77,12.77,0,0,1,1.45.29v-.61a3.21,3.21,0,0,0-.17-1,2.41,2.41,0,0,0-.58-.88,3.18,3.18,0,0,0-1-.61,4.77,4.77,0,0,0-1.56-.22,10.14,10.14,0,0,0-2.25.25,18.44,18.44,0,0,0-2.44.75V19.91a12,12,0,0,1,2.42-.77,14.5,14.5,0,0,1,2.69-.28,9.4,9.4,0,0,1,2.9.41,6.1,6.1,0,0,1,2.07,1.11,4.51,4.51,0,0,1,1.25,1.68,5.26,5.26,0,0,1,.42,2.11v5.71q0,1.5,0,2.58t.06,1.92H150Zm-.3-4.85c-.35-.08-.76-.16-1.21-.22a9.29,9.29,0,0,0-1.39-.1,3.82,3.82,0,0,0-2.15.53,1.85,1.85,0,0,0-.79,1.65,2.06,2.06,0,0,0,.18.9,1.7,1.7,0,0,0,.48.63,2,2,0,0,0,.71.38,3,3,0,0,0,.86.12,3.62,3.62,0,0,0,1.06-.14,4.89,4.89,0,0,0,.93-.38,4.11,4.11,0,0,0,.75-.51,4.3,4.3,0,0,0,.57-.54Z"/><path class="cls-8" d="M164.86,34.77c0-.21,0-.47,0-.78s0-.56,0-.77h0a7.71,7.71,0,0,1-.79.56,7.48,7.48,0,0,1-1,.5,5.53,5.53,0,0,1-1.17.35,6.33,6.33,0,0,1-1.31.14,6.78,6.78,0,0,1-2.35-.43,5.42,5.42,0,0,1-2-1.36,7.13,7.13,0,0,1-1.44-2.38,10.08,10.08,0,0,1-.55-3.5,10.57,10.57,0,0,1,.56-3.59,7.65,7.65,0,0,1,1.48-2.57,6.1,6.1,0,0,1,2.11-1.56,6.24,6.24,0,0,1,2.46-.52,5.1,5.1,0,0,1,2.47.59,5.38,5.38,0,0,1,1.77,1.49h.06l.16-1.7h3.25V34.66a10.74,10.74,0,0,1-.22,2.28,6.38,6.38,0,0,1-.64,1.69,5.73,5.73,0,0,1-1.28,1.5,7.16,7.16,0,0,1-1.76,1.06,10.09,10.09,0,0,1-2.18.63A14.44,14.44,0,0,1,160,42c-.5,0-1,0-1.47-.05s-.92-.09-1.35-.16-.8-.14-1.15-.23a6.78,6.78,0,0,1-.89-.28v-3a13.48,13.48,0,0,0,2.17.52,15.12,15.12,0,0,0,2.38.18,6.56,6.56,0,0,0,3.84-1,3.32,3.32,0,0,0,1.36-2.91Zm-3.31-3a3.62,3.62,0,0,0,1.06-.14,4.49,4.49,0,0,0,.93-.36,4,4,0,0,0,.75-.48,3.71,3.71,0,0,0,.57-.53V23.53a4.83,4.83,0,0,0-1.46-1.17,4.08,4.08,0,0,0-1.86-.48,3.79,3.79,0,0,0-.73.08,2.76,2.76,0,0,0-.77.31,3.29,3.29,0,0,0-.75.58,3.57,3.57,0,0,0-.61.93,6.13,6.13,0,0,0-.43,1.35,8.77,8.77,0,0,0-.17,1.81,9,9,0,0,0,.22,2,4.66,4.66,0,0,0,.66,1.53,3,3,0,0,0,1.08,1A3.32,3.32,0,0,0,161.55,31.81Z"/><path class="cls-8" d="M170.42,34.38V11.75h3.7V34.38Z"/><path class="cls-8" d="M183.77,31.78a11.9,11.9,0,0,0,2.25-.22,16.59,16.59,0,0,0,2.37-.62v2.95a10.84,10.84,0,0,1-2.2.6,17.13,17.13,0,0,1-3.08.28,10.86,10.86,0,0,1-3.05-.42A6.49,6.49,0,0,1,177.54,33a6.56,6.56,0,0,1-1.72-2.39,9,9,0,0,1-.63-3.57,10,10,0,0,1,.6-3.61,7.23,7.23,0,0,1,1.59-2.56,6.6,6.6,0,0,1,2.29-1.52,7.19,7.19,0,0,1,2.66-.51,7.8,7.8,0,0,1,2.65.44,5.25,5.25,0,0,1,2.09,1.37,6.46,6.46,0,0,1,1.38,2.42,11,11,0,0,1,.49,3.49c0,.52,0,1-.05,1.33H179a4.53,4.53,0,0,0,.47,1.79,3.51,3.51,0,0,0,1,1.2,4.26,4.26,0,0,0,1.48.67A7.54,7.54,0,0,0,183.77,31.78Zm-1.48-10A2.91,2.91,0,0,0,181,22a3,3,0,0,0-.95.7,3.33,3.33,0,0,0-.63,1,5.26,5.26,0,0,0-.32,1.27h6a4.38,4.38,0,0,0-.18-1.27,3.3,3.3,0,0,0-.53-1,2.63,2.63,0,0,0-.88-.7A2.77,2.77,0,0,0,182.29,21.75Z"/></svg>