<svg id="svg2" xmlns="http://www.w3.org/2000/svg" viewBox="0 0 256 256"><defs><style>.cls-1{fill:#1d8cb5;}.cls-2{fill:#fff;}</style></defs><title>linkedin_icon</title><g id="layer1"><path id="rect1942" class="cls-1" d="M210,10.51H46A35.47,35.47,0,0,0,10.5,46V210A35.47,35.47,0,0,0,46,245.49H210A35.47,35.47,0,0,0,245.5,210V46A35.47,35.47,0,0,0,210,10.51Z"/></g><g id="layer1-2" data-name="layer1"><g id="g3019"><path id="path28" class="cls-2" d="M81.6,207.76V101.49H46.28V207.76ZM64,87c12.31,0,20-8.16,20-18.36-.23-10.43-7.67-18.36-19.75-18.36s-20,7.93-20,18.36C44.2,78.82,51.86,87,63.72,87Z"/><path id="path30" class="cls-2" d="M101.15,207.76h35.33V148.42c0-3.18.23-6.36,1.16-8.63,2.55-6.35,8.37-12.92,18.12-12.92,12.78,0,17.89,9.75,17.89,24v56.85H209V146.82C209,114.18,191.55,99,168.31,99c-19.06,0-27.42,10.65-32.07,17.91h.24V101.49H101.15c.47,10,0,106.27,0,106.27Z"/></g></g></svg>