<?xml version="1.0" encoding="utf-8"?>
<!-- Generator: Adobe Illustrator 23.0.3, SVG Export Plug-In . SVG Version: 6.00 Build 0)  -->
<svg version="1.1"
	 id="svg2" xmlns:cc="http://creativecommons.org/ns#" xmlns:dc="http://purl.org/dc/elements/1.1/" xmlns:inkscape="http://www.inkscape.org/namespaces/inkscape" xmlns:rdf="http://www.w3.org/1999/02/22-rdf-syntax-ns#" xmlns:sodipodi="http://sodipodi.sourceforge.net/DTD/sodipodi-0.dtd" xmlns:svg="http://www.w3.org/2000/svg"
	 xmlns="http://www.w3.org/2000/svg" xmlns:xlink="http://www.w3.org/1999/xlink" x="0px" y="0px" viewBox="0 0 256 256"
	 style="enable-background:new 0 0 256 256;" xml:space="preserve">
<style type="text/css">
	.st0{fill:#1D8CB5;}
	.st1{fill:#FFFFFF;}
</style>
<sodipodi:namedview  bordercolor="#666666" borderopacity="1.0" id="base" inkscape:current-layer="layer1" inkscape:cx="138.80354" inkscape:cy="94.798647" inkscape:document-units="px" inkscape:pageopacity="0.0" inkscape:pageshadow="2" inkscape:window-height="674" inkscape:window-maximized="0" inkscape:window-width="853" inkscape:window-x="1" inkscape:window-y="281" inkscape:zoom="0.24748737" pagecolor="#ffffff" showgrid="false">
	</sodipodi:namedview>
<g id="layer1" transform="translate(-373.642,-318.344)" inkscape:groupmode="layer" inkscape:label="Layer 1">
	
		<path id="rect1942" inkscape:export-filename="C:\Documents and Settings\Molumen\Desktop\path3511111.png" inkscape:export-xdpi="7.7063322" inkscape:export-ydpi="7.7063322" class="st0" d="
		M583.7,328.8h-164c-19.6,0-35.5,15.9-35.5,35.5v164c0,19.6,15.9,35.5,35.5,35.5h164c19.6,0,35.5-15.9,35.5-35.5v-164
		C619.1,344.7,603.3,328.8,583.7,328.8z"/>
</g>
<g id="layer1_1_" transform="translate(-200.55198,-393.96227)" inkscape:groupmode="layer" inkscape:label="Layer 1">
	<g id="g3019" transform="matrix(1.018827,0,0,-1.018827,170.5996,498.03288)">
		<path id="path28_1_" inkscape:connector-curvature="0" class="st1" d="M109.5-101.8V2.5H74.8v-104.3H109.5z M92.2,16.8
			c12.1,0,19.6,8,19.6,18c-0.2,10.2-7.5,18-19.4,18c-11.9,0-19.6-7.8-19.6-18c0-10,7.5-18,19.2-18L92.2,16.8L92.2,16.8z"/>
		<path id="path30_1_" inkscape:connector-curvature="0" class="st1" d="M128.7-101.8h34.7v58.2c0,3.1,0.2,6.2,1.1,8.5
			c2.5,6.2,8.2,12.7,17.8,12.7c12.5,0,17.6-9.6,17.6-23.6v-55.8h34.7V-42c0,32-17.1,46.9-39.9,46.9c-18.7,0-26.9-10.4-31.5-17.6h0.2
			V2.5h-34.7C129.1-7.3,128.7-101.8,128.7-101.8L128.7-101.8z"/>
	</g>
</g>
</svg>
