<svg id="Layer_1" data-name="Layer 1" xmlns="http://www.w3.org/2000/svg" viewBox="0 0 50 50"><defs><style>.cls-1{fill:#666;}.cls-2{fill:none;stroke:#666;stroke-miterlimit:10;stroke-width:2px;}</style></defs><title>signinIcon</title><path class="cls-1" d="M25,7A18,18,0,1,1,7,25,18,18,0,0,1,25,7m0-2A20,20,0,1,0,45,25,20,20,0,0,0,25,5Z"/><path class="cls-1" d="M25,13a5,5,0,1,1-5,5,5,5,0,0,1,5-5m0-2a7,7,0,1,0,7,7,7,7,0,0,0-7-7Z"/><path class="cls-2" d="M33,35c0-5.52-3.58-10-8-10s-8,4.48-8,10"/></svg>