<svg id="Layer_1" data-name="Layer 1" xmlns="http://www.w3.org/2000/svg" viewBox="0 0 100 100"><defs><style>.cls-1{fill:#4d4d4d;}</style></defs><title>world_icon</title><path class="cls-1" d="M50,5A45,45,0,1,1,5,50,45.05,45.05,0,0,1,50,5m0-2A47,47,0,1,0,97,50,47,47,0,0,0,50,3Z"/><path class="cls-1" d="M48.07,53.22c-1.65-1.19-7.73-2.58-7.73-2.58H36.48l-5.15-2.57-5.15,7.72V66.1L36.48,70l1.29,10.3v9l5.15,3.87h5.15l-1.93-4.51,1.93-4.51,2.57-3.86,1.94-5.79H59L61.59,68,61,59.66l-9-1.29S49.37,54.16,48.07,53.22Z"/><polygon class="cls-1" points="25.53 53.86 21.67 51.29 18.09 49.47 13.95 48.71 10.08 46.14 8.79 38.41 8.79 44.85 6.22 44.85 6.22 35.84 8.79 28.11 16.52 17.81 20.38 15.23 27.79 8.57 31.97 11.37 31.97 13.95 43.56 11.37 47.42 11.37 50 12.66 52.58 16.52 48.71 17.81 46.14 15.23 35.84 20.38 35.84 25.53 37.12 26.82 38.41 29.4 40.99 29.4 40.99 26.82 43.56 22.96 46.14 21.67 48.71 24.25 51.29 26.82 52.58 29.4 51.29 30.68 47.42 30.68 42.27 34.55 38.41 38.41 34.55 40.99 33.26 42.27 33.26 46.14 30.68 46.14 29.4 40.99 25.53 40.99 19.1 42.27 16.52 44.85 24.25 48.71 28.11 50 28.62 52.13 25.53 53.86"/><polygon class="cls-1" points="90.75 73.43 85.41 78.97 84.12 78.97 82.84 77.69 80.9 75.75 79.62 71.89 79.62 70.6 77.69 68.67 77.69 67.38 80.26 64.81 79.62 60.3 78.33 57.73 78.33 55.15 75.11 53.22 72.53 53.22 69.96 54.51 66.1 55.8 62.23 51.93 58.37 45.49 58.37 44.2 58.37 41.63 62.23 39.05 59.66 36.48 63.52 35.19 66.1 35.19 67.38 33.9 71.25 32.62 71.25 28.75 73.82 27.47 78.97 32.62 82.84 31.33 86.7 31.33 86.7 35.19 89.27 36.48 91.85 36.48 93.14 36.48 94.42 36.48 95.71 44.2 95.71 49.36 95.71 55.8 93.78 65.45 91.85 69.96 90.75 73.43"/><path class="cls-1" d="M62.23,31.33h5.15L68.67,30l2.58-3.86,2.57-1.29L76.4,23.6,79,24.89l2.58,2.58L80.26,30l2.58-1.29V27.47a13,13,0,0,0-1.29-3.87h3.86l1.29,2.58L88,30h1.28l1.29-2.57L86.7,22.32l-3.22-4.51-1.29-1.29L78.33,14,77,12.66,72.53,12,70,13.3l1.29,5.15h1.28l2.58-1.29,1.29-2.57,3.86,2.57v2.58L73.82,21H70L68.67,23.6,66.1,24.89v2.58H63.52l-1.29,1.28Z"/></svg>